<svg width="260" height="260" viewBox="0 0 260 260" fill="none"
    xmlns="http://www.w3.org/2000/svg">
    <path d="M204.758 200.639C211.246 188.916 196.639 193.6 188.195 195.128C208.468 168.821 224.697 129.76 219.269 123.519C215.093 118.4 206.039 121.173 197.228 127.657C206.549 99.6016 203.307 22.0365 184.849 13.0349C166.602 4.13428 103.383 49.5412 87.1134 73.9508C86.6981 63.2233 83.309 54.3827 76.8047 54.0341C68.2368 53.7058 47.6543 90.6435 39.3007 122.508C35.512 115.012 30.2107 100.618 24.9666 112.949C-27.2674 236.36 139.667 317.78 204.758 200.639Z" fill="#477437"/>
    <path d="M205.174 200.842C211.662 189.117 196.847 193.702 188.4 195.229C208.676 168.922 224.905 129.861 219.269 123.519C215.092 118.401 206.452 121.375 197.643 127.86C206.962 99.8039 204.343 22.5422 185.68 13.4395L71.4901 247.564C115.347 268.696 172.731 259.462 205.174 200.842Z" fill="#7BB665"/>
    <path d="M109.012 55.0876C106.989 48.71 103.008 42.6611 95.6795 42.4239C79.7832 41.8584 59.5552 93.858 56.8548 102.552C55.1807 100.196 53.3043 98.2535 51.2305 97.242C46.5672 95.2244 43.0775 97.1161 39.75 104.991C17.5648 157.319 31.6488 214.759 84.2506 243.752L80.3507 253.143C79.0358 255.841 78.6466 258.217 81.1352 259.431C83.6235 260.644 85.257 258.875 86.5719 256.18L90.4718 246.786C145.602 270.594 199.131 247.159 227.215 196.424C232.791 186.565 228.71 180.724 218.191 181.241C225.817 169.815 251.482 125.088 241.877 113.729C237.177 108.1 229.96 108.687 223.689 111.019C227.081 88.8006 229.121 13.0409 205.896 1.71288C182.669 -9.61491 124.119 38.3256 109.012 55.0876ZM233.892 120.102C238.483 125.423 212.91 168.911 208.642 175.557L114.129 197.229L139.819 144.557L215.886 125.439C218.874 125.1 230.761 116.522 233.892 120.102ZM210.944 116.098L145.685 132.529L171.173 80.2714L214.082 68.0849C214.984 86.237 213.927 104.718 210.944 116.098ZM108.263 209.256L200.716 188.12C200.61 198.336 218.373 189.287 217.356 190.845C192.011 236.498 145.485 258.73 94.5023 236.943L108.055 209.155L108.263 209.256ZM85.2873 66.3628L117.921 173.665L92.5343 225.716L46.9525 113.382C47.4531 111.829 47.7464 110.175 48.4545 108.723C48.6568 108.308 50.4576 113.037 53.0878 118.171C54.9899 122.692 62.1061 122.313 63.193 117.452C68.0728 99.5525 75.7443 82.2444 85.2873 66.3628ZM124.698 159.771L92.8125 55.1441C94.1376 53.4801 94.8507 52.5443 95.5738 52.6406C99.3925 52.7061 100.642 64.3539 100.668 66.9334C100.41 72.1985 107.137 74.1958 110.192 70.0382C114.359 63.5994 122.542 56.2957 131.544 48.3646L149.477 108.965L124.698 159.771ZM41.5316 128.707L82.0549 230.358C47.1654 208.209 32.0254 169.25 41.5316 128.707ZM156.254 95.0712L140.45 41.1568C150.586 33.0083 162.071 25.7752 173.567 19.5736L181.14 44.5736L156.461 95.1724L156.254 95.0712ZM187.609 30.7858L183.121 15.2487C188.668 12.8208 194.334 11.7329 197.216 11.0855L187.609 30.7858ZM213.251 57.1553L177.343 67.6218L203.538 13.9123C211.279 24.3611 212.305 44.8853 213.251 57.1553Z" fill="#231F20"/>
</svg>
